<svg width="600" height="600" viewBox="0 0 600 600" fill="none" xmlns="http://www.w3.org/2000/svg">
<path d="M105.528 384.18V243.06H150.168V384.18H105.528ZM57.5282 247.86V208.98H198.168V247.86H57.5282Z" fill="#E93C3C"/>
<path d="M226.723 384.18V208.98H269.923V384.18H226.723ZM265.123 384.18V347.7H339.043V384.18H265.123ZM265.123 313.38V276.9H334.003V313.38H265.123ZM265.123 245.46V208.98H337.603V245.46H265.123Z" fill="#E93C3C"/>
<path d="M414.594 385.14V343.38H443.394C450.914 343.38 457.634 342.34 463.554 340.26C469.634 338.02 474.754 334.9 478.914 330.9C483.074 326.74 486.274 321.78 488.514 316.02C490.754 310.1 491.874 303.46 491.874 296.1C491.874 288.42 490.754 281.7 488.514 275.94C486.274 270.02 483.074 265.14 478.914 261.3C474.754 257.3 469.634 254.34 463.554 252.42C457.634 250.34 450.914 249.3 443.394 249.3H414.594V207.54H441.474C457.314 207.54 471.154 209.78 482.994 214.26C494.994 218.74 504.994 224.98 512.994 232.98C520.994 240.82 526.994 249.94 530.994 260.34C534.994 270.74 536.994 281.78 536.994 293.46V298.74C536.994 309.46 534.994 320.02 530.994 330.42C526.994 340.66 520.994 349.94 512.994 358.26C504.994 366.42 494.994 372.98 482.994 377.94C471.154 382.74 457.314 385.14 441.474 385.14H414.594ZM374.754 385.14V207.54H419.394V385.14H374.754Z" fill="#E93C3C"/>
<path fill-rule="evenodd" clip-rule="evenodd" d="M95.5282 394.18V257.86H47.5282V198.98H208.168V257.86H160.168V394.18H95.5282ZM150.168 247.86H198.168V208.98H57.5282V247.86H105.528V384.18H150.168V247.86ZM216.723 394.18V198.98H347.603V255.46H279.923V266.9H344.003V323.38H279.923V337.7H349.043V394.18H216.723ZM339.043 384.18V347.7H269.923V313.38H334.003V276.9H269.923V245.46H337.603V208.98H226.723V384.18H339.043ZM441.474 385.14C457.314 385.14 471.154 382.74 482.994 377.94C494.994 372.98 504.994 366.42 512.994 358.26C520.994 349.94 526.994 340.66 530.994 330.42C534.994 320.02 536.994 309.46 536.994 298.74V293.46C536.994 281.78 534.994 270.74 530.994 260.34C526.994 249.94 520.994 240.82 512.994 232.98C504.994 224.98 494.994 218.74 482.994 214.26C471.154 209.78 457.314 207.54 441.474 207.54H374.754V385.14H441.474ZM419.394 343.38H443.394C450.914 343.38 457.634 342.34 463.554 340.26C469.634 338.02 474.754 334.9 478.914 330.9C483.074 326.74 486.274 321.78 488.514 316.02C490.754 310.1 491.874 303.46 491.874 296.1C491.874 288.42 490.754 281.7 488.514 275.94C486.274 270.02 483.074 265.14 478.914 261.3C474.754 257.3 469.634 254.34 463.554 252.42C457.634 250.34 450.914 249.3 443.394 249.3H419.394V343.38ZM429.394 333.38H443.394C449.969 333.38 455.515 332.475 460.168 330.85C465.04 329.046 468.888 326.647 471.912 323.759C475 320.653 477.428 316.92 479.177 312.438C480.916 307.826 481.874 302.425 481.874 296.1C481.874 289.37 480.89 283.926 479.194 279.565L479.177 279.522L479.161 279.479C477.405 274.838 475.022 271.316 472.131 268.648L472.056 268.579L471.983 268.508C469.045 265.684 465.31 263.461 460.542 261.956L460.39 261.908L460.239 261.855C455.572 260.215 450.002 259.3 443.394 259.3H429.394V333.38ZM364.754 197.54V395.14H441.474C458.303 395.14 473.469 392.592 486.751 387.207L486.782 387.195L486.814 387.182C499.891 381.776 511.07 374.507 520.135 365.261L520.169 365.226L520.202 365.191C529.068 355.971 535.806 345.585 540.308 334.059L540.318 334.034L540.327 334.01C544.75 322.51 546.994 310.736 546.994 298.74V293.46C546.994 280.613 544.789 268.35 540.327 256.75C535.816 245.021 529.029 234.703 520.029 225.873C510.901 216.757 499.65 209.807 486.512 204.899C473.302 199.904 458.222 197.54 441.474 197.54H364.754Z" fill="#05060F"/>
<path d="M585 203C585 235.033 559.033 261 527 261C494.967 261 469 235.033 469 203C469 170.967 494.967 145 527 145C559.033 145 585 170.967 585 203Z" fill="white"/>
<path fill-rule="evenodd" clip-rule="evenodd" d="M527 150C497.729 150 474 173.729 474 203C474 232.271 497.729 256 527 256C556.271 256 580 232.271 580 203C580 173.729 556.271 150 527 150ZM464 203C464 168.206 492.206 140 527 140C561.794 140 590 168.206 590 203C590 237.794 561.794 266 527 266C492.206 266 464 237.794 464 203Z" fill="#05060F"/>
<path fill-rule="evenodd" clip-rule="evenodd" d="M517.714 228.459L550.328 205.654C552.224 204.391 552.224 201.609 550.328 200.346L517.714 177.541C515.592 176.128 512.75 177.647 512.75 180.195V225.805C512.75 228.353 515.592 229.872 517.714 228.459Z" fill="#05060F"/>
</svg>
